#!OML:ASF H:\Dans Jumps\Project 1\Capture day 1\Session 1\subject.ASF
:FULLY-SPECIFIED
:DEGREES
102
root 0.580376 16.9755 -15.0256 13.0322 -0.661598 -2.22622
lowerback 7.19248 -0.70879 0.310712
upperback 6.74593 -0.96618 2.16613
thorax 2.98228 -0.524776 2.10668
lowerneck -14.615 1.17069 -1.17525
upperneck 24.132 2.06378 -0.526434
head 10.0913 0.773463 0.27769
rclavicle -8.84592e-015 2.94201e-014
rhumerus -38.499 -21.1196 -68.1469
rradius 25.2355
rwrist 33.4782
rhand -16.5318 -25.1814
rfingers 7.12502
rthumb 9.68713 -54.9386
lclavicle -8.84592e-015 2.94201e-014
lhumerus -33.7576 3.88422 82.142
lradius 17.8709
lwrist 4.39528
lhand -23.4704 -1.90427
lfingers 7.12502
lthumb 2.98881 28.0545
rfemur -34.9858 -1.57163 20.5429
rtibia 41.1674
rfoot -23.6549 -8.61313
rtoes 1.85367
lfemur -35.4972 7.31977 -19.3681
ltibia 41.4003
lfoot -22.6851 14.5702
ltoes -8.0093
103
root 0.578261 16.97 -15.014 13.0992 -0.556059 -2.22469
lowerback 7.26415 -0.715081 0.307734
upperback 6.7448 -0.97349 2.18852
thorax 2.94225 -0.528855 2.1329
lowerneck -14.6253 1.1456 -1.19049
upperneck 24.0559 2.02369 -0.495068
head 10.0655 0.758258 0.285878
rclavicle 7.55382e-015 -1.31198e-014
rhumerus -38.6649 -21.1319 -68.1012
rradius 25.2188
rwrist 33.4647
rhand -16.5606 -25.1121
rfingers 7.12502
rthumb 9.65934 -54.8706
lclavicle 7.55382e-015 -1.31198e-014
lhumerus -33.8064 3.80395 82.2255
lradius 17.9502
lwrist 4.57489
lhand -23.4631 -1.92374
lfingers 7.12502
lthumb 2.99585 28.035
rfemur -35.0722 -1.53621 20.5518
rtibia 41.3438
rfoot -23.9778 -8.7927
rtoes 1.95408
lfemur -35.6038 7.18882 -19.3464
ltibia 41.5579
lfoot -22.9154 14.8139
ltoes -8.26014
104
root 0.57571 16.9644 -15.0012 13.1633 -0.453381 -2.21552
lowerback 7.3385 -0.720771 0.293216
upperback 6.74146 -0.980371 2.2077
thorax 2.89857 -0.533065 2.16232
lowerneck -14.6403 1.11972 -1.19957
upperneck 23.9873 1.98212 -0.467314
head 10.0433 0.742385 0.291638
rclavicle 1.09332e-014 1.15295e-014
rhumerus -38.819 -21.1229 -68.0722
rradius 25.2007
rwrist 33.4474
rhand -16.5896 -25.0194
rfingers 7.12502
rthumb 9.63137 -54.7792
lclavicle 1.09332e-014 1.15295e-014
lhumerus -33.8519 3.68529 82.3223
lradius 18.0505
lwrist 4.80694
lhand -23.4785 -1.96009
lfingers 7.12502
lthumb 2.98101 27.9988
rfemur -35.1572 -1.4978 20.5533
rtibia 41.5231
rfoot -24.283 -8.96822
rtoes 2.0457
lfemur -35.7018 7.06713 -19.332
ltibia 41.7122
lfoot -23.1368 15.0429
ltoes -8.50925
105
root 0.572772 16.9587 -14.9876 13.2253 -0.352586 -2.20022
lowerback 7.41117 -0.725506 0.271283
upperback 6.73931 -0.986354 2.22431
thorax 2.85713 -0.537055 2.19319
lowerneck -14.6474 1.09692 -1.21613
upperneck 23.9101 1.94459 -0.431919
head 10.0165 0.728684 0.301749
rclavicle -1.67973e-014 1.47101e-014
rhumerus -38.9503 -21.1055 -68.0595
rradius 25.1746
rwrist 33.4499
rhand -16.617 -24.9234
rfingers 7.12502
rthumb 9.60486 -54.6845
lclavicle -1.67973e-014 1.47101e-014
lhumerus -33.8761 3.54355 82.425
lradius 18.1533
lwrist 5.06867
lhand -23.5023 -2.00339
lfingers 7.12502
lthumb 2.95803 27.9558
rfemur -35.2424 -1.45671 20.5491
rtibia 41.7044
rfoot -24.5651 -9.142
rtoes 2.10712
lfemur -35.7951 6.95212 -19.3231
ltibia 41.8657
lfoot -23.3476 15.2548
ltoes -8.74761
106
root 0.569508 16.9526 -14.9731 13.2879 -0.252231 -2.18687
lowerback 7.48823 -0.730869 0.248555
upperback 6.73433 -0.993092 2.24091
thorax 2.81037 -0.541405 2.22462
lowerneck -14.6607 1.07672 -1.23039
upperneck 23.8407 1.91099 -0.398905
head 9.99372 0.716582 0.311215
rclavicle -2.18663e-015 1.03368e-014
rhumerus -39.0589 -21.0604 -68.0729
rradius 25.1629
rwrist 33.4015
rhand -16.5642 -24.9081
rfingers 7.12502
rthumb 9.65587 -54.6668
lclavicle -2.18663e-015 1.03368e-014
lhumerus -33.8865 3.39219 82.5278
lradius 18.2526
lwrist 5.35488
lhand -23.5332 -2.05342
lfingers 7.12502
lthumb 2.92821 27.9062
rfemur -35.3306 -1.41031 20.5473
rtibia 41.8878
rfoot -24.8329 -9.30986
rtoes 2.13458
lfemur -35.89 6.84634 -19.3121
ltibia 42.022
lfoot -23.5479 15.4437
ltoes -8.95725
107
root 0.565964 16.9459 -14.9579 13.3517 -0.151681 -2.17901
lowerback 7.56493 -0.736683 0.230529
upperback 6.72941 -1.00023 2.25768
thorax 2.76384 -0.545765 2.25364
lowerneck -14.6867 1.05509 -1.23865
upperneck 23.7781 1.8759 -0.372446
head 9.97599 0.703449 0.317308
rclavicle -2.38542e-015 -4.17448e-015
rhumerus -39.1375 -20.9885 -68.1187
rradius 25.169
rwrist 33.285
rhand -16.4235 -24.9978
rfingers 7.12502
rthumb 9.79156 -54.7501
lclavicle -2.38542e-015 -4.17448e-015
lhumerus -33.8754 3.24853 82.6215
lradius 18.3387
lwrist 5.63702
lhand -23.5702 -2.10423
lfingers 7.12502
lthumb 2.8924 27.8559
rfemur -35.4208 -1.35833 20.5515
rtibia 42.0738
rfoot -25.0933 -9.47303
rtoes 2.1442
lfemur -35.9894 6.75056 -19.2952
ltibia 42.1847
lfoot -23.7374 15.609
ltoes -9.15245
108
root 0.562129 16.9389 -14.942 13.4182 -0.049439 -2.17838
lowerback 7.63594 -0.743247 0.219636
upperback 6.72655 -1.00819 2.2764
thorax 2.72259 -0.550329 2.28064
lowerneck -14.7198 1.03515 -1.24856
upperneck 23.7138 1.84376 -0.34594
head 9.95901 0.691502 0.324106
rclavicle -3.67752e-015 -4.96962e-015
rhumerus -39.1861 -20.9138 -68.1808
rradius 25.1699
rwrist 33.1939
rhand -16.2994 -25.1035
rfingers 7.12502
rthumb 9.91135 -54.8502
lclavicle -3.67752e-015 -4.96962e-015
lhumerus -33.8313 3.12924 82.6992
lradius 18.4005
lwrist 5.88148
lhand -23.6004 -2.13785
lfingers 7.12502
lthumb 2.86329 27.8227
rfemur -35.5165 -1.30354 20.5654
rtibia 42.2636
rfoot -25.34 -9.64639
rtoes 2.10173
lfemur -36.0975 6.66311 -19.2701
ltibia 42.356
lfoot -23.9152 15.7502
ltoes -9.32902
109
root 0.558171 16.9312 -14.9254 13.489 0.0548412 -2.18622
lowerback 7.69734 -0.749589 0.220078
upperback 6.72598 -1.01552 2.29669
thorax 2.68886 -0.554215 2.30274
lowerneck -14.7611 1.01411 -1.26122
upperneck 23.6498 1.81075 -0.318463
head 9.94369 0.67899 0.331652
rclavicle 3.77691e-015 1.98785e-015
rhumerus -39.2105 -20.8559 -68.244
rradius 25.1489
rwrist 33.1888
rhand -16.2353 -25.1858
rfingers 7.12502
rthumb 9.97313 -54.9295
lclavicle 3.77691e-015 1.98785e-015
lhumerus -33.756 3.0463 82.7536
lradius 18.444
lwrist 6.06049
lhand -23.6104 -2.13283
lfingers 7.12502
lthumb 2.85357 27.8278
rfemur -35.618 -1.25065 20.5906
rtibia 42.4584
rfoot -25.5761 -9.83174
rtoes 2.00059
lfemur -36.2161 6.58148 -19.2358
ltibia 42.5375
lfoot -24.0811 15.8677
ltoes -9.4824
